<mxfile host="app.diagrams.net" modified="2023-11-06T15:36:30.094Z" agent="Mozilla/5.0 (Windows NT 10.0; Win64; x64) AppleWebKit/537.36 (KHTML, like Gecko) Chrome/119.0.0.0 Safari/537.36" etag="siWKwksMwrsKKPv-YJkx" version="22.0.8" type="device">
  <diagram id="cX9Rxq1GDXvq4FwfHjqG" name="Page-1">
    <mxGraphModel dx="2284" dy="800" grid="1" gridSize="10" guides="1" tooltips="1" connect="1" arrows="1" fold="1" page="1" pageScale="1" pageWidth="850" pageHeight="1100" math="0" shadow="0">
      <root>
        <mxCell id="0" />
        <mxCell id="1" parent="0" />
        <object label="" kardinalnost="(0,M)" id="p6OjkSHZk2NeHFK_y6Gc-2">
          <mxCell style="rounded=0;orthogonalLoop=1;jettySize=auto;html=1;exitX=0.5;exitY=1;exitDx=0;exitDy=0;endArrow=block;endFill=1;targetPerimeterSpacing=0;" parent="1" edge="1">
            <mxGeometry relative="1" as="geometry">
              <mxPoint x="169.5" y="330" as="targetPoint" />
              <mxPoint x="169.5" y="200" as="sourcePoint" />
            </mxGeometry>
          </mxCell>
        </object>
        <mxCell id="p6OjkSHZk2NeHFK_y6Gc-15" value="&lt;font style=&quot;font-size: 12px;&quot;&gt;(1,M)&lt;/font&gt;" style="edgeLabel;html=1;align=center;verticalAlign=middle;resizable=0;points=[];fontSize=12;" parent="p6OjkSHZk2NeHFK_y6Gc-2" vertex="1" connectable="0">
          <mxGeometry x="-0.7692" y="3" relative="1" as="geometry">
            <mxPoint x="18" as="offset" />
          </mxGeometry>
        </mxCell>
        <mxCell id="p6OjkSHZk2NeHFK_y6Gc-1" value="&lt;font style=&quot;font-size: 14px;&quot;&gt;Evidencija o radnim mestima&lt;/font&gt;" style="rounded=0;whiteSpace=wrap;html=1;fontSize=14;" parent="1" vertex="1">
          <mxGeometry x="120" y="140" width="120" height="60" as="geometry" />
        </mxCell>
        <mxCell id="p6OjkSHZk2NeHFK_y6Gc-3" value="&lt;font style=&quot;font-size: 14px;&quot;&gt;Stavka evidencije&lt;/font&gt;" style="shape=ext;margin=3;double=1;whiteSpace=wrap;html=1;align=center;rounded=0;" parent="1" vertex="1">
          <mxGeometry x="125" y="330" width="110" height="50" as="geometry" />
        </mxCell>
        <mxCell id="p6OjkSHZk2NeHFK_y6Gc-4" value="naziv rm" style="ellipse;whiteSpace=wrap;html=1;align=center;" parent="1" vertex="1">
          <mxGeometry x="-20" y="400" width="100" height="40" as="geometry" />
        </mxCell>
        <mxCell id="p6OjkSHZk2NeHFK_y6Gc-5" value="" style="endArrow=none;html=1;rounded=0;entryX=0;entryY=0.75;entryDx=0;entryDy=0;exitX=0.5;exitY=0;exitDx=0;exitDy=0;" parent="1" source="p6OjkSHZk2NeHFK_y6Gc-4" target="p6OjkSHZk2NeHFK_y6Gc-3" edge="1">
          <mxGeometry width="50" height="50" relative="1" as="geometry">
            <mxPoint x="70" y="420" as="sourcePoint" />
            <mxPoint x="120" y="370" as="targetPoint" />
          </mxGeometry>
        </mxCell>
        <mxCell id="p6OjkSHZk2NeHFK_y6Gc-7" value="broj zaposlenih" style="ellipse;whiteSpace=wrap;html=1;align=center;" parent="1" vertex="1">
          <mxGeometry x="60" y="450" width="100" height="40" as="geometry" />
        </mxCell>
        <mxCell id="p6OjkSHZk2NeHFK_y6Gc-8" value="" style="endArrow=none;html=1;rounded=0;entryX=0.164;entryY=1.02;entryDx=0;entryDy=0;exitX=0.5;exitY=0;exitDx=0;exitDy=0;entryPerimeter=0;" parent="1" source="p6OjkSHZk2NeHFK_y6Gc-7" target="p6OjkSHZk2NeHFK_y6Gc-3" edge="1">
          <mxGeometry width="50" height="50" relative="1" as="geometry">
            <mxPoint x="180" y="482" as="sourcePoint" />
            <mxPoint x="235" y="430" as="targetPoint" />
          </mxGeometry>
        </mxCell>
        <mxCell id="p6OjkSHZk2NeHFK_y6Gc-9" value="napomena" style="ellipse;whiteSpace=wrap;html=1;align=center;" parent="1" vertex="1">
          <mxGeometry x="120" y="502" width="100" height="40" as="geometry" />
        </mxCell>
        <mxCell id="p6OjkSHZk2NeHFK_y6Gc-10" value="" style="endArrow=none;html=1;rounded=0;entryX=0.4;entryY=1.02;entryDx=0;entryDy=0;exitX=0.5;exitY=0;exitDx=0;exitDy=0;entryPerimeter=0;" parent="1" source="p6OjkSHZk2NeHFK_y6Gc-9" target="p6OjkSHZk2NeHFK_y6Gc-3" edge="1">
          <mxGeometry width="50" height="50" relative="1" as="geometry">
            <mxPoint x="210" y="522" as="sourcePoint" />
            <mxPoint x="265" y="470" as="targetPoint" />
          </mxGeometry>
        </mxCell>
        <mxCell id="p6OjkSHZk2NeHFK_y6Gc-16" value="redni broj" style="ellipse;whiteSpace=wrap;html=1;align=center;" parent="1" vertex="1">
          <mxGeometry x="-60" y="340" width="100" height="40" as="geometry" />
        </mxCell>
        <mxCell id="p6OjkSHZk2NeHFK_y6Gc-17" value="" style="endArrow=none;html=1;rounded=0;entryX=0;entryY=0.25;entryDx=0;entryDy=0;exitX=0.94;exitY=0.325;exitDx=0;exitDy=0;exitPerimeter=0;" parent="1" source="p6OjkSHZk2NeHFK_y6Gc-16" target="p6OjkSHZk2NeHFK_y6Gc-3" edge="1">
          <mxGeometry width="50" height="50" relative="1" as="geometry">
            <mxPoint x="30" y="360" as="sourcePoint" />
            <mxPoint x="85" y="308" as="targetPoint" />
          </mxGeometry>
        </mxCell>
        <mxCell id="p6OjkSHZk2NeHFK_y6Gc-18" value="&lt;font style=&quot;font-size: 14px;&quot;&gt;Poslodavac&lt;/font&gt;" style="whiteSpace=wrap;html=1;align=center;" parent="1" vertex="1">
          <mxGeometry x="630" y="150" width="100" height="40" as="geometry" />
        </mxCell>
        <mxCell id="p6OjkSHZk2NeHFK_y6Gc-20" value="" style="edgeStyle=orthogonalEdgeStyle;rounded=0;orthogonalLoop=1;jettySize=auto;html=1;endArrow=none;endFill=0;" parent="1" source="p6OjkSHZk2NeHFK_y6Gc-19" target="p6OjkSHZk2NeHFK_y6Gc-1" edge="1">
          <mxGeometry relative="1" as="geometry" />
        </mxCell>
        <mxCell id="p6OjkSHZk2NeHFK_y6Gc-23" value="&lt;font style=&quot;font-size: 12px;&quot;&gt;(1,1) Ima&lt;/font&gt;" style="edgeLabel;html=1;align=center;verticalAlign=middle;resizable=0;points=[];fontSize=12;" parent="p6OjkSHZk2NeHFK_y6Gc-20" vertex="1" connectable="0">
          <mxGeometry x="0.3385" y="1" relative="1" as="geometry">
            <mxPoint y="-11" as="offset" />
          </mxGeometry>
        </mxCell>
        <mxCell id="p6OjkSHZk2NeHFK_y6Gc-21" style="edgeStyle=orthogonalEdgeStyle;rounded=0;orthogonalLoop=1;jettySize=auto;html=1;exitX=1;exitY=0.5;exitDx=0;exitDy=0;entryX=0;entryY=0.5;entryDx=0;entryDy=0;endArrow=none;endFill=0;" parent="1" source="p6OjkSHZk2NeHFK_y6Gc-19" target="p6OjkSHZk2NeHFK_y6Gc-18" edge="1">
          <mxGeometry relative="1" as="geometry" />
        </mxCell>
        <mxCell id="p6OjkSHZk2NeHFK_y6Gc-24" value="(0,M) Sadrzi" style="edgeLabel;html=1;align=center;verticalAlign=middle;resizable=0;points=[];fontSize=12;" parent="p6OjkSHZk2NeHFK_y6Gc-21" vertex="1" connectable="0">
          <mxGeometry x="-0.0364" y="3" relative="1" as="geometry">
            <mxPoint x="-3" y="-7" as="offset" />
          </mxGeometry>
        </mxCell>
        <mxCell id="p6OjkSHZk2NeHFK_y6Gc-19" value="opasnost na radnim mestima" style="shape=rhombus;perimeter=rhombusPerimeter;whiteSpace=wrap;html=1;align=center;" parent="1" vertex="1">
          <mxGeometry x="370" y="135" width="150" height="70" as="geometry" />
        </mxCell>
        <mxCell id="p6OjkSHZk2NeHFK_y6Gc-25" value="adresa" style="ellipse;whiteSpace=wrap;html=1;align=center;" parent="1" vertex="1">
          <mxGeometry x="500" y="60" width="100" height="40" as="geometry" />
        </mxCell>
        <mxCell id="p6OjkSHZk2NeHFK_y6Gc-26" value="" style="endArrow=none;html=1;rounded=0;entryX=0.16;entryY=0.025;entryDx=0;entryDy=0;exitX=1;exitY=1;exitDx=0;exitDy=0;entryPerimeter=0;" parent="1" source="p6OjkSHZk2NeHFK_y6Gc-25" target="p6OjkSHZk2NeHFK_y6Gc-18" edge="1">
          <mxGeometry width="50" height="50" relative="1" as="geometry">
            <mxPoint x="660" y="290" as="sourcePoint" />
            <mxPoint x="715" y="238" as="targetPoint" />
          </mxGeometry>
        </mxCell>
        <mxCell id="p6OjkSHZk2NeHFK_y6Gc-27" value="PIB#" style="ellipse;whiteSpace=wrap;html=1;align=center;" parent="1" vertex="1">
          <mxGeometry x="720" y="60" width="100" height="40" as="geometry" />
        </mxCell>
        <mxCell id="p6OjkSHZk2NeHFK_y6Gc-28" value="" style="endArrow=none;html=1;rounded=0;entryX=1;entryY=0;entryDx=0;entryDy=0;exitX=0;exitY=1;exitDx=0;exitDy=0;" parent="1" source="p6OjkSHZk2NeHFK_y6Gc-27" target="p6OjkSHZk2NeHFK_y6Gc-18" edge="1">
          <mxGeometry width="50" height="50" relative="1" as="geometry">
            <mxPoint x="620" y="220" as="sourcePoint" />
            <mxPoint x="715" y="213" as="targetPoint" />
          </mxGeometry>
        </mxCell>
        <mxCell id="p6OjkSHZk2NeHFK_y6Gc-31" value="poslovno ime" style="ellipse;whiteSpace=wrap;html=1;align=center;" parent="1" vertex="1">
          <mxGeometry x="620" y="40" width="100" height="40" as="geometry" />
        </mxCell>
        <mxCell id="p6OjkSHZk2NeHFK_y6Gc-32" value="" style="endArrow=none;html=1;rounded=0;entryX=0.63;entryY=0.025;entryDx=0;entryDy=0;exitX=0.65;exitY=1.1;exitDx=0;exitDy=0;exitPerimeter=0;entryPerimeter=0;" parent="1" source="p6OjkSHZk2NeHFK_y6Gc-31" target="p6OjkSHZk2NeHFK_y6Gc-18" edge="1">
          <mxGeometry width="50" height="50" relative="1" as="geometry">
            <mxPoint x="780" y="280" as="sourcePoint" />
            <mxPoint x="875" y="263" as="targetPoint" />
          </mxGeometry>
        </mxCell>
        <mxCell id="p6OjkSHZk2NeHFK_y6Gc-33" value="id#" style="ellipse;whiteSpace=wrap;html=1;align=center;" parent="1" vertex="1">
          <mxGeometry x="150" y="40" width="100" height="40" as="geometry" />
        </mxCell>
        <mxCell id="p6OjkSHZk2NeHFK_y6Gc-34" value="" style="endArrow=none;html=1;rounded=0;entryX=0.383;entryY=-0.017;entryDx=0;entryDy=0;exitX=0.28;exitY=0.95;exitDx=0;exitDy=0;entryPerimeter=0;exitPerimeter=0;" parent="1" source="p6OjkSHZk2NeHFK_y6Gc-33" target="p6OjkSHZk2NeHFK_y6Gc-1" edge="1">
          <mxGeometry width="50" height="50" relative="1" as="geometry">
            <mxPoint x="220" y="279" as="sourcePoint" />
            <mxPoint x="206" y="140" as="targetPoint" />
          </mxGeometry>
        </mxCell>
        <mxCell id="p6OjkSHZk2NeHFK_y6Gc-37" style="edgeStyle=orthogonalEdgeStyle;rounded=0;orthogonalLoop=1;jettySize=auto;html=1;exitX=1;exitY=0.5;exitDx=0;exitDy=0;entryX=0;entryY=0.5;entryDx=0;entryDy=0;endArrow=none;endFill=0;" parent="1" source="p6OjkSHZk2NeHFK_y6Gc-39" target="p6OjkSHZk2NeHFK_y6Gc-1" edge="1">
          <mxGeometry relative="1" as="geometry">
            <mxPoint x="80" y="165" as="targetPoint" />
          </mxGeometry>
        </mxCell>
        <mxCell id="p6OjkSHZk2NeHFK_y6Gc-38" value="(1,1) Overeno od strane" style="edgeLabel;html=1;align=center;verticalAlign=middle;resizable=0;points=[];fontSize=12;" parent="p6OjkSHZk2NeHFK_y6Gc-37" vertex="1" connectable="0">
          <mxGeometry x="-0.0364" y="3" relative="1" as="geometry">
            <mxPoint x="-2" y="-7" as="offset" />
          </mxGeometry>
        </mxCell>
        <mxCell id="p6OjkSHZk2NeHFK_y6Gc-40" style="edgeStyle=orthogonalEdgeStyle;rounded=0;orthogonalLoop=1;jettySize=auto;html=1;exitX=0;exitY=0.5;exitDx=0;exitDy=0;endArrow=none;endFill=0;entryX=1;entryY=0.5;entryDx=0;entryDy=0;" parent="1" source="p6OjkSHZk2NeHFK_y6Gc-39" target="p6OjkSHZk2NeHFK_y6Gc-42" edge="1">
          <mxGeometry relative="1" as="geometry">
            <mxPoint x="-330" y="170" as="targetPoint" />
          </mxGeometry>
        </mxCell>
        <mxCell id="p6OjkSHZk2NeHFK_y6Gc-39" value="Vodjenje evidencije" style="shape=rhombus;perimeter=rhombusPerimeter;whiteSpace=wrap;html=1;align=center;" parent="1" vertex="1">
          <mxGeometry x="-180" y="135" width="150" height="70" as="geometry" />
        </mxCell>
        <mxCell id="p6OjkSHZk2NeHFK_y6Gc-41" value="(0,M) Overava" style="edgeLabel;html=1;align=center;verticalAlign=middle;resizable=0;points=[];fontSize=12;" parent="1" vertex="1" connectable="0">
          <mxGeometry x="-249.99529411764684" y="160" as="geometry">
            <mxPoint x="-6" y="-5" as="offset" />
          </mxGeometry>
        </mxCell>
        <mxCell id="p6OjkSHZk2NeHFK_y6Gc-42" value="&lt;font style=&quot;font-size: 14px;&quot;&gt;Lice za bezbednost&lt;/font&gt;" style="whiteSpace=wrap;html=1;align=center;" parent="1" vertex="1">
          <mxGeometry x="-425" y="150" width="100" height="40" as="geometry" />
        </mxCell>
        <mxCell id="p6OjkSHZk2NeHFK_y6Gc-43" value="ime" style="ellipse;whiteSpace=wrap;html=1;align=center;" parent="1" vertex="1">
          <mxGeometry x="-560" y="59" width="100" height="40" as="geometry" />
        </mxCell>
        <mxCell id="p6OjkSHZk2NeHFK_y6Gc-44" value="" style="endArrow=none;html=1;rounded=0;entryX=0.08;entryY=0.049;entryDx=0;entryDy=0;exitX=1;exitY=1;exitDx=0;exitDy=0;entryPerimeter=0;" parent="1" source="p6OjkSHZk2NeHFK_y6Gc-43" target="p6OjkSHZk2NeHFK_y6Gc-42" edge="1">
          <mxGeometry width="50" height="50" relative="1" as="geometry">
            <mxPoint x="-400" y="289" as="sourcePoint" />
            <mxPoint x="-414" y="150" as="targetPoint" />
          </mxGeometry>
        </mxCell>
        <mxCell id="p6OjkSHZk2NeHFK_y6Gc-45" value="id#" style="ellipse;whiteSpace=wrap;html=1;align=center;" parent="1" vertex="1">
          <mxGeometry x="-340" y="59" width="100" height="40" as="geometry" />
        </mxCell>
        <mxCell id="p6OjkSHZk2NeHFK_y6Gc-46" value="" style="endArrow=none;html=1;rounded=0;entryX=0.845;entryY=0.019;entryDx=0;entryDy=0;exitX=0;exitY=1;exitDx=0;exitDy=0;entryPerimeter=0;" parent="1" source="p6OjkSHZk2NeHFK_y6Gc-45" target="p6OjkSHZk2NeHFK_y6Gc-42" edge="1">
          <mxGeometry width="50" height="50" relative="1" as="geometry">
            <mxPoint x="-440" y="219" as="sourcePoint" />
            <mxPoint x="-330" y="149" as="targetPoint" />
          </mxGeometry>
        </mxCell>
        <mxCell id="p6OjkSHZk2NeHFK_y6Gc-47" value="prezime" style="ellipse;whiteSpace=wrap;html=1;align=center;" parent="1" vertex="1">
          <mxGeometry x="-440" y="39" width="100" height="40" as="geometry" />
        </mxCell>
        <mxCell id="p6OjkSHZk2NeHFK_y6Gc-48" value="" style="endArrow=none;html=1;rounded=0;entryX=0.621;entryY=-0.04;entryDx=0;entryDy=0;exitX=0.65;exitY=1.1;exitDx=0;exitDy=0;exitPerimeter=0;entryPerimeter=0;" parent="1" source="p6OjkSHZk2NeHFK_y6Gc-47" target="p6OjkSHZk2NeHFK_y6Gc-42" edge="1">
          <mxGeometry width="50" height="50" relative="1" as="geometry">
            <mxPoint x="-280" y="279" as="sourcePoint" />
            <mxPoint x="-367" y="150" as="targetPoint" />
          </mxGeometry>
        </mxCell>
      </root>
    </mxGraphModel>
  </diagram>
</mxfile>
